<?xml version="1.0" standalone="no"?>
<!DOCTYPE svg PUBLIC "-//W3C//DTD SVG 20010904//EN"
 "http://www.w3.org/TR/2001/REC-SVG-20010904/DTD/svg10.dtd">
<svg version="1.0" xmlns="http://www.w3.org/2000/svg"
 width="822.000000pt" height="430.000000pt" viewBox="0 0 822.000000 430.000000"
 preserveAspectRatio="xMidYMid meet">

<g transform="translate(0.000000,430.000000) scale(0.100000,-0.100000)"
fill="#000000" stroke="none">
<path d="M3070 4080 c-115 -43 -209 -130 -261 -245 -20 -42 -23 -67 -24 -155
0 -97 2 -110 31 -170 45 -94 111 -162 200 -206 41 -21 74 -41 74 -46 0 -4
-545 -8 -1210 -8 l-1210 0 -60 -24 c-125 -51 -240 -149 -324 -275 -78 -117
-90 -158 -89 -301 2 -300 126 -511 375 -636 118 -60 154 -64 544 -64 196 0
375 -5 405 -10 70 -13 123 -50 150 -102 17 -33 20 -55 17 -113 -4 -91 -37
-148 -95 -164 -25 -7 -251 -11 -639 -11 l-600 0 -47 -29 c-85 -54 -130 -158
-108 -247 16 -64 63 -128 115 -159 l43 -25 604 0 c695 1 709 2 855 74 148 74
264 201 316 346 21 58 23 82 22 230 0 154 -2 170 -27 239 -59 163 -169 285
-319 355 -166 77 -170 78 -623 79 l-401 2 -42 27 c-57 38 -76 78 -76 163 0 56
5 79 24 114 49 86 -11 81 895 81 l801 0 52 -26 c60 -30 104 -79 121 -133 11
-40 -6 -98 -385 -1281 -13 -41 -24 -84 -24 -96 0 -31 54 -100 101 -130 106
-66 225 -52 315 39 51 52 52 53 138 314 l88 263 56 2 c105 4 123 1 200 -35
106 -49 126 -53 150 -29 16 16 29 19 60 15 34 -5 45 -1 65 19 26 26 56 30 227
32 l84 1 97 -265 c53 -146 106 -280 118 -297 26 -40 112 -90 167 -99 73 -11
151 19 212 82 32 33 52 62 52 76 0 13 -102 329 -226 702 l-227 680 23 44 c26
49 86 94 145 111 61 17 253 14 307 -5 53 -18 114 -73 134 -120 11 -27 14 -160
14 -730 l0 -696 30 -39 c18 -21 56 -50 88 -66 l57 -28 1637 0 1637 0 30 29
c77 74 98 216 48 319 -16 31 -42 68 -58 82 l-31 25 -546 0 c-414 0 -553 3
-571 13 -14 6 -36 34 -50 62 -47 91 -26 250 38 285 13 6 210 10 570 10 l551 0
39 35 c85 77 110 216 59 327 -15 32 -39 69 -54 83 l-27 25 -548 0 c-326 0
-558 4 -573 10 -43 16 -80 102 -80 185 0 84 23 139 73 172 l34 23 531 0 c505
0 533 1 562 19 102 62 139 214 82 331 -15 31 -41 69 -58 85 l-31 30 -707 0
-707 0 -59 -30 c-41 -21 -70 -44 -93 -76 l-33 -47 -5 -706 -4 -707 -28 -51
c-16 -30 -44 -62 -67 -77 l-40 -26 -529 -3 c-614 -3 -608 -4 -689 78 l-48 47
0 717 c0 599 -2 721 -14 744 -21 41 -76 88 -126 111 -44 20 -63 21 -732 21
-416 0 -688 4 -688 9 0 5 25 21 55 35 121 55 222 189 246 324 30 171 -70 356
-238 439 -68 33 -85 37 -167 40 -72 3 -102 -1 -146 -17z m178 -1297 c12 -11
68 -149 146 -365 69 -191 126 -352 126 -358 0 -5 -22 -10 -49 -10 -39 0 -66 9
-125 41 -79 42 -134 52 -175 30 -17 -9 -34 -9 -76 0 -48 11 -57 10 -87 -8 -18
-10 -43 -38 -56 -61 -25 -44 -62 -59 -62 -24 0 23 222 687 243 729 9 17 22 33
29 36 27 11 67 6 86 -10z m-158 -715 c0 -7 -7 -22 -15 -32 -8 -11 -15 -40 -15
-64 0 -58 41 -102 94 -102 38 0 47 11 60 73 8 33 16 34 64 3 20 -14 56 -32 80
-41 39 -16 42 -20 42 -54 0 -54 -12 -67 -42 -47 -33 22 -58 11 -58 -24 0 -36
-24 -45 -62 -23 -30 18 -30 18 -53 -11 -26 -33 -30 -32 -139 20 -61 30 -80 34
-148 34 -53 0 -78 4 -78 12 0 6 10 42 22 80 21 66 23 68 56 68 37 0 74 31 104
88 14 27 23 32 53 32 21 0 35 -5 35 -12z"/>
<path d="M6105 699 c-202 -31 -312 -154 -275 -309 32 -132 158 -210 340 -210
144 0 256 45 308 122 22 33 27 55 30 115 l4 73 -168 -2 -169 -3 -3 -42 -3 -43
127 0 126 0 -7 -27 c-17 -71 -86 -98 -245 -98 -104 0 -119 2 -159 25 -57 32
-82 67 -88 123 -8 69 24 129 85 159 40 19 66 23 172 26 85 3 145 -1 187 -11
l63 -14 10 36 c5 20 10 39 10 43 0 10 -128 36 -210 41 -41 3 -102 1 -135 -4z"/>
<path d="M2867 693 c-4 -3 -7 -118 -7 -255 l0 -248 280 0 280 0 0 45 0 45
-230 0 -230 0 0 60 0 60 200 0 200 0 0 50 0 50 -200 0 -200 0 0 50 0 50 226 0
225 0 -3 48 -3 47 -266 3 c-146 1 -268 -1 -272 -5z"/>
<path d="M4228 695 c-5 -5 -8 -121 -8 -258 l0 -249 193 4 c210 5 272 19 345
74 44 34 82 115 82 177 0 115 -74 196 -215 233 -57 16 -386 31 -397 19z m434
-123 c60 -30 82 -73 76 -148 -9 -105 -69 -136 -275 -142 l-143 -5 0 163 0 162
148 -4 c129 -3 153 -6 194 -26z"/>
<path d="M2142 648 c14 -24 78 -136 143 -250 l117 -208 57 0 57 0 86 153 c48
83 111 196 142 250 l55 97 -54 0 -53 0 -108 -197 c-59 -109 -112 -201 -118
-205 -15 -10 -24 -1 -47 45 -11 23 -60 113 -107 200 l-87 157 -53 0 -54 0 24
-42z"/>
<path d="M3510 440 l0 -250 50 0 50 0 0 185 c0 129 3 185 11 185 6 0 98 -83
204 -185 l192 -185 52 0 51 0 0 250 0 250 -50 0 -50 0 0 -185 0 -186 -22 12
c-12 6 -103 90 -202 185 l-181 173 -52 1 -53 0 0 -250z"/>
<path d="M4930 440 l0 -250 50 0 50 0 0 250 0 250 -50 0 -50 0 0 -250z"/>
<path d="M5130 440 l0 -250 50 0 50 0 0 186 0 185 28 -16 c15 -9 106 -93 202
-186 l175 -168 48 -1 47 0 0 250 0 250 -45 0 -45 0 0 -185 c0 -142 -3 -185
-12 -185 -7 1 -98 84 -203 185 l-190 184 -52 1 -53 0 0 -250z"/>
</g>
</svg>
